# xmcd
#
# Track frame offsets: 
#        150
#        15077
#        29282
#        42781
#        57284
#        69568
#        80649
#        93321
#        105225
#        116857
#        132032
#        143286
#        155282
#        166149
#        177675
#        188085
#        201890
#        214346
#        227276
#        238478
#
# Disc length: 3342 seconds
#
# Revision: 0
# Processed by: cddbd v1.5.1PL0 Copyright (c) Steve Scherf et al.
# Submitted via: ExactAudioCopy v0.95a4
#
DISCID=030d0c14
DTITLE=Various Artist - The Best Of Country CD1
DYEAR=2005
DGENRE=Country
TTITLE0=Kenny Rogers - Crazy
TTITLE1=Lee Greenwood - I.O.U.
TTITLE2=T. Graham Brown - I Wish I Could Hurt That Way Again
TTITLE3=Johnny Darrell - With Pen In Hand
TTITLE4=Charlie Rich - Behind Closed Doors
TTITLE5=Don Gibson - Oh, Lonesome Me
TTITLE6=Lynn Anderson - Top Of The World
TTITLE7=Skeeter Davis - The End Of The World
TTITLE8=Patsy Cline - Walkin' After Midnight
TTITLE9=Kenny Rogers - I Can't Help Falling In Love
TTITLE10=Conway Twitty - Hello Darlin'
TTITLE11=Frankie Laine - High Noon (Do Not Forsake Me)
TTITLE12=Hank Williams - Why Don't You Love Me
TTITLE13=Jimmie Dolan - Hot Rod Race
TTITLE14=Les Paul and Mary Ford - Mockin' Bird Hill
TTITLE15=Red Foley and Ernest Tubb with The Sunshine Trio - Goodnight Ir
TTITLE15=ene
TTITLE16=Skeets McDonald - Don't Let The Stars Get In Your Eyes
TTITLE17=Merle Haggard - The Fightin' Side Of Me
TTITLE18=The Kendalls - Heaven's Just A Sin Away
TTITLE19=Hank Williams - Your Cheatin' Heart
EXTD=
EXTT0=
EXTT1=
EXTT2=
EXTT3=
EXTT4=
EXTT5=
EXTT6=
EXTT7=
EXTT8=
EXTT9=
EXTT10=
EXTT11=
EXTT12=
EXTT13=
EXTT14=
EXTT15=
EXTT16=
EXTT17=
EXTT18=
EXTT19=
PLAYORDER=
